<?xml version="1.0" encoding="UTF-8"?>
<svg width="143px" height="43px" viewBox="0 0 143 43" version="1.1" xmlns="http://www.w3.org/2000/svg" xmlns:xlink="http://www.w3.org/1999/xlink">
    <!-- Generator: Sketch 52.6 (67491) - http://www.bohemiancoding.com/sketch -->
    <title>logo</title>
    <desc>Created with Sketch.</desc>
    <g id="Page-1" stroke="none" stroke-width="1" fill="none" fill-rule="evenodd">
        <g id="feather-icon" transform="translate(-517.000000, -958.000000)">
            <g id="logo" transform="translate(517.000000, 958.000000)">
                <g id="Group" transform="translate(48.000000, 14.000000)" fill-rule="nonzero">
                    <path d="M88.462362,20.3895691 L94.108696,13.062242 L94.108696,10.3434963 L85.456098,10.3434963 L85.456098,13.062242 L90.459072,13.062242 L84.813018,20.3895691 L84.813018,23.1085956 L94.498967,23.1085956 L94.498967,20.3895691 L88.462362,20.3895691 Z M83.527419,10.3434963 L79.923989,10.3434963 L75.83874,16.3573763 L75.83874,6.0576588 L72.786001,6.0576588 L72.786001,23.1085956 L75.83874,23.1085956 L75.83874,17.1407818 L80.199475,23.1085956 L84.285004,23.1085956 L78.937112,16.5877071 L83.527419,10.3434963 Z" id="Fill-1" fill="#E5702A"></path>
                    <path d="M67.562134,18.5028231 C66.232301,18.5028231 65.152196,19.5873439 65.152196,20.9224196 C65.152196,22.2591807 66.232021,23.3420162 67.561854,23.3420162 C68.893648,23.3420162 69.972073,22.2591807 69.972073,20.9224196 C69.972073,19.5873439 68.893368,18.5028231 67.562134,18.5028231 Z M58.655888,15.6854846 C58.650848,16.453722 58.565739,17.0921876 58.401959,17.6062185 C58.23846,18.1151933 58.024846,18.5241708 57.75636,18.828095 C57.492913,19.132862 57.204549,19.3617883 56.896587,19.5117842 C56.588626,19.6662743 56.290183,19.7612155 55.99734,19.8112141 C55.704217,19.8609319 55.445529,19.881156 55.227156,19.8758191 C55.008503,19.881156 54.749816,19.8609319 54.456692,19.8112141 C54.163569,19.7612155 53.865406,19.6662743 53.557165,19.5117842 C53.249203,19.3617883 52.961119,19.132862 52.697952,18.828095 C52.4294659,18.5241708 52.2155726,18.1151933 52.0517931,17.6062185 C51.8877336,17.0921876 51.8029042,16.453722 51.7984248,15.6854846 L51.7984248,8.5314674 C51.8029042,7.7635109 51.8874536,7.1244835 52.0517931,6.6110145 C52.2158526,6.1020396 52.4294659,5.6930621 52.697952,5.388857 C52.961399,5.0843709 53.249203,4.854602 53.557165,4.7051679 C53.865406,4.5503968 54.163569,4.4506805 54.456692,4.4060188 C54.749816,4.3560201 55.008503,4.3360769 55.227156,4.340852 C55.445529,4.3360769 55.704217,4.3560201 55.99734,4.4060188 C56.290183,4.4506805 56.588346,4.5503968 56.896587,4.7051679 C57.204829,4.854602 57.492913,5.0843709 57.75636,5.388857 C58.024846,5.6930621 58.23846,6.1020396 58.401959,6.6110145 C58.565739,7.1244835 58.650848,7.7635109 58.655608,8.5314674 L58.655888,15.6854846 Z M59.157585,1.5372772 C58.054523,0.8985307 56.747366,0.5746632 55.227156,0.569888 C53.711706,0.5746632 52.3992297,0.8985307 51.2961675,1.5372772 C50.1933854,2.1709677 49.3431317,3.083864 48.7423268,4.271191 C48.1460013,5.458518 47.8430792,6.875333 47.8330004,8.5314674 L47.8330004,15.6854846 C47.8430792,17.3365629 48.1460013,18.7587149 48.7423268,19.945761 C49.3434116,21.133088 50.1931054,22.0409283 51.2961675,22.6796748 C52.3992297,23.3181404 53.711706,23.6422888 55.227156,23.6473449 C56.747646,23.6422888 58.054523,23.3181404 59.157305,22.6796748 C60.260647,22.0409283 61.110341,21.133088 61.711986,19.945761 C62.31307,18.7587149 62.615993,17.3365629 62.621032,15.6854846 L62.621032,8.5314674 C62.616273,6.875333 62.31307,5.458518 61.711986,4.271191 C61.110341,3.083864 60.260647,2.1709677 59.157585,1.5372772 Z M40.7669637,15.9248039 L30.9281535,0.9586414 L26.8434641,0.9586414 L26.8434641,23.1085956 L30.9281535,23.1085956 L30.9281535,8.142714 L40.7669637,23.1085956 L44.8516531,23.1085956 L44.8516531,0.9586414 L40.7669637,0.9586414 L40.7669637,15.9248039 Z M18.5847765,23.1085956 L22.6694659,23.1085956 L22.6694659,0.9586414 L18.5847765,0.9586414 L18.5847765,23.1085956 Z M10.9520905,0.9586414 L4.0946277,10.5670857 L4.0946277,0.9586414 L0.0099383,0.9586414 L0.0099383,23.1085956 L4.0946277,23.1085956 L4.0946277,13.4108279 L10.9520905,23.1085956 L15.8416793,23.1085956 L7.5233591,11.8541291 L15.8416793,0.9586414 L10.9520905,0.9586414 Z" id="Fill-2" fill="#1E415E"></path>
                </g>
                <path d="M33.4691159,26.6862999 L32.9215044,26.2093467 C33.076605,26.0301381 33.228346,25.8472779 33.3764475,25.6616089 L33.9416968,26.1166526 C33.7877161,26.3096248 33.6300958,26.4995072 33.4691159,26.6862999 Z M31.1756426,28.3370973 L31.1753626,28.3373782 L30.7918106,27.7199794 C30.9959051,27.5921739 31.1997196,27.4632448 31.4032541,27.3340349 L31.7907257,27.9489057 C31.5860713,28.0789583 31.3811369,28.2084491 31.1756426,28.3370973 Z M28.6912332,29.8519434 L28.6912332,29.8522243 L28.3227992,29.2258369 C28.5299733,29.1028066 28.7368674,28.9794954 28.9437616,28.8550606 L29.3158351,29.4792008 C29.1078211,29.6041974 28.8998071,29.7286321 28.6912332,29.8519434 Z M27.59657,11.238409 L27.2076986,10.6249427 C27.412073,10.4946092 27.6167275,10.3642757 27.8222218,10.2350658 L28.2074536,10.851341 C28.0033591,10.9799891 27.7998246,11.1086373 27.59657,11.238409 Z M26.1701483,31.3055552 L26.1701483,31.3049934 L25.8173924,30.6701793 C26.0276461,30.5519242 26.2373399,30.4339499 26.4470337,30.314852 L26.8039891,30.9479807 C26.5931754,31.0676404 26.3820818,31.1867382 26.1701483,31.3055552 Z M24.8895884,11.7664844 C25.0970424,11.641207 25.3047765,11.5159295 25.5130704,11.3914947 L25.8837441,12.0164776 C25.6768499,12.1400697 25.4702358,12.2645045 25.2636216,12.3892201 L24.8895884,11.7664844 Z M23.6149077,32.6959665 L23.6146277,32.6959665 L23.2772699,32.051883 C23.4903233,31.9398074 23.7030967,31.8263274 23.9155901,31.7125665 L24.2568674,32.3541219 C24.0429742,32.4687255 23.8290809,32.5827673 23.6149077,32.6959665 Z M22.6865437,13.1981867 C22.8909182,13.0678532 23.0958526,12.9378006 23.3010669,12.8085907 L23.6862988,13.4248659 C23.4822043,13.5532332 23.2786697,13.6824431 23.0756951,13.8119339 L22.6865437,13.1981867 Z M21.0257913,34.0234581 L20.7043915,33.3717906 C20.9199646,33.2642093 21.1352576,33.1563471 21.3505507,33.0476422 L21.67615,33.6973435 C21.4597371,33.8066102 21.2430442,33.915315 21.0257913,34.0234581 Z M21.0437091,14.3422565 L21.4432192,14.9489814 C21.2424842,15.0826856 21.0417493,15.2163898 20.8415744,15.3509367 L20.4387047,14.7467397 C20.6397196,14.6113502 20.8415744,14.4768033 21.0437091,14.3422565 Z M18.4055989,35.2871875 L18.0998771,34.6276551 C18.3182498,34.5259725 18.5360625,34.4231663 18.7538753,34.3197983 L19.0635166,34.9773646 C18.844584,35.0812943 18.6253714,35.1846623 18.4055989,35.2871875 Z M18.6379698,15.9804138 L19.0514781,16.5775884 C18.8541028,16.7157869 18.6567275,16.8545471 18.460192,16.9935882 L18.0424842,16.3989416 C18.2404195,16.2590578 18.4389147,16.1197358 18.6379698,15.9804138 Z M16.1180048,18.6929798 L15.6865787,18.1084453 C15.8811544,17.9640672 16.07629,17.8194083 16.2717056,17.6758729 L16.6997721,18.2626545 C16.5054764,18.4056281 16.3114606,18.5491635 16.1180048,18.6929798 Z M15.7557301,36.4871546 L15.4656863,35.8205999 C15.6865787,35.7236924 15.9071912,35.6265041 16.1269637,35.528473 L16.4209269,36.1930616 C16.1994746,36.2919352 15.9774624,36.3902472 15.7557301,36.4871546 Z M13.8180923,20.4488305 L13.372388,19.8744081 C13.5636041,19.7252549 13.7551002,19.5763825 13.9471562,19.428072 L14.3889409,20.0044607 C14.1980048,20.1519286 14.0076286,20.2996773 13.8180923,20.4488305 Z M13.0781448,37.6230785 L13.0778648,37.6233594 L12.804059,36.9495015 C13.0269112,36.8584927 13.2494834,36.7660795 13.4720555,36.6731046 L13.7497808,37.3449962 C13.5263688,37.438533 13.3021168,37.5312271 13.0781448,37.6230785 Z M11.5612944,22.2597359 L11.1018718,21.69683 C11.2891684,21.5429016 11.4773049,21.3889733 11.6654414,21.2361685 L12.1212244,21.8016024 C11.9339278,21.9535645 11.7471912,22.1063693 11.5612944,22.2597359 Z M10.4422743,38.6629376 L10.1522305,37.9963829 C10.3731229,37.8997563 10.5934554,37.8022871 10.8135079,37.7042561 L11.1074711,38.3691255 C10.8860188,38.4677183 10.6640066,38.5660302 10.4422743,38.6629376 Z M9.34929089,24.1254151 L8.87615004,23.5743066 C9.05980708,23.4153222 9.24374409,23.2574613 9.42796106,23.0998814 L9.89774234,23.6537988 C9.71464522,23.8102552 9.53154811,23.9675542 9.34929089,24.1254151 Z M7.18348162,26.0447444 L6.69746237,25.5057143 C6.87719991,25.3425165 7.0572174,25.1795996 7.23751487,25.0180872 L7.7204545,25.5599263 C7.54099693,25.7211578 7.36209929,25.8826702 7.18348162,26.0447444 Z M5.06610629,28.017724 L4.56664872,27.4902104 C4.74218678,27.3227993 4.9180048,27.1559499 5.09466272,26.9893814 L5.59076071,27.519704 C5.41550262,27.684868 5.24052449,27.8508747 5.06610629,28.017724 Z M3.25109317,29.8047536 C3.07051574,29.6381852 2.892458,29.4685269 2.71691994,29.295498 L3.22449649,28.776692 C3.39415529,28.9435413 3.56661373,29.1075818 3.74103193,29.2685324 L3.25109317,29.8047536 Z M25.6776898,10.4252291 C17.1351177,15.5183478 9.12503893,21.6457078 1.7692384,29.0466284 C3.43279046,33.3209493 6.51296543,37.2169099 10.132353,39.6938082 C18.4621518,36.5523214 26.5352227,32.4923204 34.2992122,27.3292598 C34.6855639,25.7930659 34.8946977,24.2245696 34.8946977,22.6678708 C34.8946977,15.1416727 31.9976199,8.63848034 25.6776898,10.4252291 Z M1.58866097,24.4992812 C1.76223928,24.3290612 1.93609754,24.1596838 2.11079571,23.9905873 L2.61333289,24.5147302 C2.44003455,24.6827031 2.26729614,24.8506761 2.09511767,25.0194917 L1.58866097,24.4992812 Z M2.37676246,17.1947063 L3.03859973,17.4907656 C2.94313166,17.7050856 2.85438276,17.9224953 2.77235301,18.1429949 L2.09371784,17.8882266 C2.18078696,17.6539634 2.27541513,17.4227899 2.37676246,17.1947063 Z M3.94092694,14.640282 L4.50001705,15.1031906 C4.35219553,15.2835228 4.21053324,15.4691918 4.07531014,15.6599169 L3.48486395,15.2382993 C3.62988582,15.0335296 3.78190682,14.8340969 3.94092694,14.640282 Z M4.19009579,23.0251643 L3.69987707,22.489224 C3.87821478,22.3246218 4.05711242,22.1605813 4.23712991,21.9971027 L4.72342913,22.5364137 C4.54509142,22.6987688 4.36731364,22.8616857 4.19009579,23.0251643 Z M6.17728739,12.6358426 L6.56895844,13.2479045 C6.3732629,13.3740246 6.18344662,13.5080097 5.99978958,13.6487362 L5.56024452,13.0701003 C5.75929964,12.9178573 5.96507392,12.7726366 6.17728739,12.6358426 Z M6.34582633,21.0974082 L5.8724055,20.5465806 C6.05634251,20.3878771 6.24055949,20.2294545 6.42561635,20.0718746 L6.89399781,20.6263537 C6.71090069,20.7828101 6.52808355,20.9398283 6.34582633,21.0974082 Z M8.67513516,18.2188355 L9.12559886,18.7887637 C8.93690244,18.9387596 8.74904592,19.0895981 8.56174934,19.2412794 L8.10708617,18.6750028 C8.29550262,18.522198 8.48503893,18.369955 8.67513516,18.2188355 Z M8.94026202,11.4468303 L9.10656124,12.154676 C8.88482895,12.2074836 8.6628167,12.2704032 8.44108442,12.3442776 L8.21235301,11.654128 C8.45480271,11.5732313 8.6972524,11.504413 8.94026202,11.4468303 Z M10.9865262,16.4424797 L11.4165525,17.0281378 C11.2233766,17.1713923 11.0304807,17.3154895 10.8384248,17.4607102 L10.8384248,17.4609911 L10.4027992,16.8792655 C10.596535,16.7329212 10.7911107,16.5877005 10.9865262,16.4424797 Z M11.1928604,11.225488 C11.444829,11.2341957 11.6953976,11.253858 11.9451264,11.2839134 L11.9448464,11.2839134 L11.8597371,12.0060846 C11.6293259,11.9785573 11.3986347,11.9602993 11.1676636,11.9524344 L11.1928604,11.225488 Z M13.3578298,14.748706 L13.7674186,15.3486895 C13.5692034,15.4852026 13.3715481,15.6225584 13.1744527,15.7607569 L13.1744527,15.7610378 L12.7595446,15.1644249 C12.9583198,15.024822 13.1576548,14.8866236 13.3578298,14.748706 Z M15.7893259,13.1411658 L16.1765175,13.7554748 C15.9735429,13.8846847 15.7711282,14.0147374 15.5689934,14.1456326 L15.1759226,13.5344135 C15.3797371,13.4026755 15.5841115,13.2714993 15.7893259,13.1411658 Z M18.4946277,13.3245877 C9.53266797,6.21101884 0.444444,13.0453819 0.444444,22.383328 C0.444444,23.9782281 0.691653099,25.5925096 1.1412769,27.1775785 C6.57651749,21.5959901 12.3608744,16.9778583 18.4946277,13.3245877 Z M14.7279786,40.3022185 L15.0101833,40.9721439 C14.7864912,41.067366 14.5630792,41.1611837 14.3385472,41.2538778 L14.0622218,40.5814243 C14.284794,40.489292 14.5065262,40.396317 14.7279786,40.3024994 L14.7279786,40.3022185 Z M17.1547152,39.4162877 L17.412563,40.0963253 C17.1857913,40.1831206 16.9584597,40.2685116 16.7308482,40.3530598 L16.4794396,39.6707751 C16.7050914,39.5867887 16.9304632,39.5022404 17.1547152,39.4162877 Z M19.8314606,38.3371039 L19.8314606,38.336823 L20.1139453,39.0070293 C19.8902533,39.1019705 19.6665612,39.1957882 19.4420293,39.2887632 L19.1659838,38.6157479 C19.388556,38.5238965 19.6102883,38.4309215 19.8314606,38.3371039 Z M22.4690109,37.1621361 L22.4690109,37.1615743 L22.7744527,37.8211068 C22.5544003,37.9241938 22.3340678,38.0258764 22.1131754,38.1264355 L21.8133329,37.464375 C22.0322655,37.3640968 22.2509182,37.2635378 22.4690109,37.1621361 Z M25.0640066,35.8953169 L25.3918456,36.5436137 C25.1757126,36.654004 24.9587397,36.7632706 24.7417668,36.8711328 L24.4192471,36.2200271 C24.6345402,36.1127267 24.8495534,36.0045836 25.0640066,35.8953169 Z M27.6153276,34.5414215 L27.964444,35.1784826 C27.7519506,35.2958952 27.5391772,35.412465 27.3258438,35.5276304 L26.9817668,34.8874794 C27.1937003,34.7731567 27.404794,34.6574295 27.6153276,34.5414215 Z M30.1635691,33.2307833 L30.4883285,33.8807654 C30.2657563,33.9925601 30.0398246,34.0978943 29.8102533,34.1956444 L29.5272087,33.5262808 C29.7419418,33.4344294 29.9541553,33.3361175 30.1635691,33.2307833 Z M18.1659488,42.4518786 C24.6219418,42.4518786 30.7176199,36.8672004 33.4257213,30.0319946 C26.260577,34.7636064 18.9126155,38.246376 11.3812769,40.4794608 C13.5512856,41.725775 15.8705157,42.4518786 18.1659488,42.4518786 Z" id="Fill-4" fill="#1E415E" fill-rule="nonzero"></path>
                <path d="M22.1355726,0.748809126 C23.5060013,1.41283585 24.87643,2.07714347 26.2465787,2.74145109 C22.180367,4.28073471 20.4798596,8.78875712 19.4417493,14.1279365 C18.3543653,9.00391975 18.6852839,4.3543282 22.1355726,0.748809126" id="Fill-5" fill="#E5702A"></path>
            </g>
        </g>
    </g>
</svg>